<svg width="512" height="512" viewBox="0 0 512 512" fill="none" xmlns="http://www.w3.org/2000/svg">
<path d="M44.6494 253.83C45.5604 165.006 141.043 93.9717 257.917 95.1703C374.79 96.3689 468.796 169.346 467.885 258.17C466.975 346.994 371.491 418.028 254.618 416.83C137.745 415.631 43.7385 342.654 44.6494 253.83Z" fill="white"/>
<path d="M213.014 292.622H199.766L159.906 232.309V292.622H146.658V211.74H159.906L199.766 271.937V211.74H213.014V292.622Z" fill="#0005E9"/>
<path d="M318.3 211.856C326.9 211.856 334.415 213.522 340.845 216.853C347.353 220.107 352.35 224.833 355.836 231.031C359.4 237.151 361.182 244.317 361.182 252.53C361.182 260.742 359.4 267.869 355.836 273.912C352.35 279.955 347.353 284.604 340.845 287.857C334.415 291.034 326.9 292.622 318.3 292.622H291.921V211.856H318.3ZM318.3 281.815C327.752 281.815 334.996 279.258 340.032 274.145C345.068 269.031 347.585 261.826 347.585 252.53C347.585 243.155 345.068 235.834 340.032 230.566C334.996 225.298 327.752 222.664 318.3 222.664H305.169V281.815H318.3Z" fill="#0005E9"/>
<path d="M221.154 254.281L296.761 149.271C297.155 148.724 298.008 149.173 297.78 149.807L260.148 254.338C260.044 254.627 260.184 254.948 260.466 255.069L279.612 263.274C279.961 263.424 280.075 263.862 279.844 264.162L205.595 360.826C205.191 361.352 204.362 360.898 204.588 360.274L239.444 264.071C239.547 263.787 239.416 263.472 239.142 263.345L221.382 255.149C221.05 254.995 220.94 254.578 221.154 254.281Z" fill="#F30304"/>
<path fill-rule="evenodd" clip-rule="evenodd" d="M294.306 155.167L222.95 254.273L239.75 262.027C240.71 262.469 241.17 263.573 240.81 264.566L207.871 355.479L278.008 264.168L259.894 256.404C258.905 255.98 258.417 254.859 258.782 253.846L294.306 155.167ZM295.582 148.423C296.96 146.509 299.945 148.081 299.146 150.3L261.793 254.058L280.184 261.939C281.404 262.462 281.805 263.995 280.996 265.048L206.747 361.711C205.332 363.554 202.431 361.964 203.223 359.779L237.806 264.329L220.773 256.468C219.612 255.932 219.228 254.471 219.975 253.433L295.582 148.423ZM261.04 253.735C261.04 253.734 261.039 253.734 261.039 253.734L260.695 254.535L261.039 253.734L261.04 253.735Z" fill="#F30304"/>
<path d="M366.818 149.001C400.286 169.286 423.348 197.845 431.953 229.661C440.557 261.478 434.155 294.517 413.87 322.977C393.584 351.437 360.713 373.498 321.03 385.285C281.346 397.071 237.388 397.83 196.875 387.429L198.579 383.536C237.886 393.628 280.535 392.892 319.037 381.456C357.539 370.02 389.431 348.617 409.112 321.004C428.793 293.392 435.005 261.336 426.657 230.467C418.308 199.598 395.933 171.89 363.461 152.208L366.818 149.001Z" fill="black"/>
<path d="M341.011 140.333C340.676 139.95 340.959 139.352 341.467 139.369L370.448 140.332C370.866 140.346 371.133 140.783 370.954 141.161L361.1 161.992C360.921 162.37 360.414 162.441 360.138 162.127L341.011 140.333Z" fill="black"/>
<path d="M164.494 378.586C124.232 361.223 94.2155 332.828 80.5813 299.207C66.9471 265.585 70.7245 229.275 91.1414 197.699C111.558 166.124 147.073 141.667 190.425 129.328C233.777 116.989 281.693 117.701 324.379 131.317L322.286 135.106C280.872 121.895 234.383 121.205 192.321 133.176C150.26 145.147 115.803 168.876 95.994 199.512C76.1851 230.147 72.5201 265.376 85.7484 297.996C98.9766 330.617 128.099 358.166 167.162 375.012L164.494 378.586Z" fill="black"/>
<path d="M190.562 381.925C190.958 382.244 190.782 382.883 190.278 382.953L161.562 386.982C161.148 387.04 160.81 386.655 160.922 386.252L167.052 364.038C167.163 363.635 167.651 363.477 167.977 363.74L190.562 381.925Z" fill="black"/>
</svg>
